<?xml version="1.0" encoding="UTF-8" standalone="no"?>
<!DOCTYPE svg PUBLIC "-//W3C//DTD SVG 1.1//EN" "http://www.w3.org/Graphics/SVG/1.1/DTD/svg11.dtd">
<svg width="100%" height="100%" viewBox="0 0 256 256" version="1.1" xmlns="http://www.w3.org/2000/svg" xmlns:xlink="http://www.w3.org/1999/xlink" xml:space="preserve" xmlns:serif="http://www.serif.com/" style="fill-rule:evenodd;clip-rule:evenodd;stroke-linejoin:round;stroke-miterlimit:2;">
    <g transform="matrix(1,0,0,1,-1050,0)">
        <rect id="Artboard2" x="1050" y="0" width="256" height="256" style="fill:none;"/>
        <g id="Artboard21" serif:id="Artboard2">
            <g transform="matrix(0.24,0,0,0.24,1178.456518,127.843953)">
                <g transform="matrix(1,0,0,1,-537.5,-533.333333)">
                    <g transform="matrix(4.166667,0,0,4.166667,0,0)">
                        <path d="M161.4,252.6C161.1,251.8 162.1,248.8 163.6,246C165.1,243.3 166.1,240.8 165.8,240.5C165.6,240.2 162.3,240.7 158.5,241.5C135.6,246.3 106.8,243.3 84.7,234C59.3,223.1 36.1,200.7 23.1,174.3C2.6,132.6 6,87.3 32.4,49.1C63.2,4.5 124.4,-11.4 176.5,11.7C201.1,22.6 222.5,43.9 232.1,66.8C233.8,71 236.4,78.7 237.8,83.9C240.2,92.7 240.4,95.1 240.4,113.5C240.4,135.8 239.2,142.4 232.8,156.4C223.9,175.7 206.1,189 189.4,189C178.4,189 164.6,181.6 157.8,172C155.4,168.8 153,166 152.5,166C151.9,166 149,168.5 146,171.6C134.3,183.4 121.8,189 107.1,189C92.6,189 82.8,185.4 73.5,176.8C59.3,163.6 52.6,142.3 55.9,121.2C58.3,106 63.6,95.6 74.3,85.1L81,78.5L81,69.5C81,58.2 82.3,53.4 86.5,49.5C90.6,45.5 94.7,44.3 110.5,42.4C126.7,40.4 147.2,40.9 154.3,43.5C161.3,46 169.1,53.6 172.5,61.1C175,66.7 175.2,68.1 174.8,75.9C174.3,86 171.5,92.4 164.4,100.1L159.9,104.8L162.1,109.2C165.9,116.8 185.1,149.4 187.7,152.9C198.3,166.8 213.8,153.2 219.6,125C222.5,110.5 220.7,91.9 214.8,77C201.5,43.3 165.3,19.8 127,19.9C101,19.9 81.1,27.7 63,44.8C40.6,65.8 30,89.6 29.9,118.9C29.8,166.1 61.1,209 104.5,221C115.3,224 128.2,223.5 139,219.5C152.9,214.4 153.5,212.2 139.8,216.4L132,218.8L128,214.3C125.8,211.8 124,209.3 124,208.9C124,207.3 129.5,205.2 135.3,204.5C138.7,204.1 146.4,204.3 153.3,205C164,206.1 166.5,206.1 173.4,204.6C182.4,202.8 200.4,202.5 207.9,204.1C214.1,205.4 219.4,208.8 219.8,211.9C220.4,215.6 213.2,221.4 200.2,227.7C189.7,232.7 187.7,234.2 180.5,241.5C172.9,249.3 169.5,251.8 164.2,253.4C162.7,253.9 161.8,253.7 161.4,252.6ZM198.5,211.4C198.5,210.4 197.7,209.4 196.7,209.2C194.5,208.8 193.2,211.9 195.1,213.1C197.1,214.3 198.5,213.6 198.5,211.4ZM205,175.4C212.9,171.7 221.5,164 227,155.8C229.2,152.5 231,149.4 231,148.9C231,148.4 227.9,151.2 224.1,155C213.9,165.4 205.1,168.6 194.9,165.7C186.3,163.2 183,159.1 165.7,129.6C157.1,114.9 150,102.3 150,101.6C150,100.9 152.8,97.9 156.3,94.8C164.9,87.2 167.5,81.8 167.5,71.5C167.5,64.7 167.1,63 165.1,59.9C157.9,49.3 141.7,45.3 115.5,47.8C91.9,50.1 89.3,51.6 88.4,63.1C87.6,72.2 88.6,74.7 93.2,75.2C95.6,75.4 96.5,76.1 97.1,78.1C97.4,79.5 97.8,90.7 97.9,103.1C98,125.4 98.9,136 101,138.5C103.8,141.8 114.6,141.4 118.1,137.9C119.9,136.1 120.1,134.6 119.8,122.7C119.7,115.4 119.9,108.9 120.3,108.3C121.5,106.4 126.5,106.7 128.2,108.8C129.1,109.7 133.9,117.7 139,126.5C163.5,169.2 173.8,179.4 191.5,178.7C196.8,178.5 200,177.7 205,175.4ZM117.1,168C127.5,164.8 140,153.5 140,147.4C140,146 137.5,140.5 134.3,135.2C125.8,120.6 126.3,120.9 126.8,130.3C127.6,145.2 124,149.1 109.4,149.3C102.5,149.5 100.7,149.2 98.3,147.4C92.8,143.4 91.7,139.5 91.3,120.6C91.1,111.2 90.7,101.9 90.4,100L89.8,96.5L86.6,100.2C69.6,119.8 71.8,151.3 91,165C94.2,167.2 102.9,169.8 107.6,169.9C109.4,170 113.6,169.1 117.1,168Z" style="fill:rgb(89,55,205);fill-rule:nonzero;"/>
                        <path d="M120.8,90.3C118.4,89.7 117.8,86.9 118.2,78C118.5,70.9 118.6,70.5 121.4,69.1C124.8,67.5 135.7,66.5 139.4,67.4C142.9,68.3 146,71.5 146,74.3C146,80.9 128.3,92.1 120.8,90.3ZM132.8,81C138.2,78.6 138.2,77 132.7,77C127.7,77 124.4,78.9 125.3,81.4C126.1,83.5 127.5,83.4 132.8,81Z" style="fill:rgb(89,55,205);fill-rule:nonzero;"/>
                    </g>
                </g>
            </g>
        </g>
    </g>
</svg>
