<?xml version="1.0" encoding="utf-8"?>
<!DOCTYPE svg PUBLIC "-//W3C//DTD SVG 1.0//EN" "http://www.w3.org/TR/2001/REC-SVG-20010904/DTD/svg10.dtd">
<svg version="1.0" xmlns="http://www.w3.org/2000/svg" width="1302px" height="381px" viewBox="99 163 1342 401" preserveAspectRatio="xMidYMid meet">
 <g fill="#5F34DC">
  <path d="M447 551 c0 -0.6 2.5 -4.9 5.5 -9.4 5.4 -8.2 9 -15.4 8.2 -16.3 -0.3 -0.2 -4.3 0.7 -8.8 2.1 -17.8 5.4 -44.3 9.6 -60.7 9.6 -29 0 -51.2 -6.9 -74.9 -23.4 -12.7 -8.8 -21.4 -17.3 -29.4 -28.8 -15.8 -22.5 -41.7 -62.3 -51.4 -78.8 -5.9 -10.2 -10.9 -18.6 -11 -18.7 -0.1 -0.2 0.1 6.2 0.3 14.1 0.3 9.2 0 15.6 -0.7 17.8 -2.7 8.3 -11.3 11.8 -29.1 11.8 -12.9 0 -18.1 -2.1 -21.7 -8.5 -4.2 -7.5 -6.3 -30.5 -6.3 -68.5 l0 -24.5 -4.2 -2 c-9.6 -4.7 -12.9 -15.4 -10.8 -35.8 1.3 -13.7 4 -20.4 9.7 -24.1 13 -8.6 76.1 -14.5 98.8 -9.3 10.7 2.5 19.3 6.7 25.8 12.7 16 14.6 20.3 43.3 9.9 65.4 -3.4 7.2 -10.5 16.2 -15.6 19.6 -2 1.4 -3.6 2.8 -3.6 3.2 0 0.4 2 3.9 4.4 7.6 3.8 6 13.4 22.7 47.4 82.7 4.7 8.3 10.5 17.7 13 21 7 9.1 16.3 17.7 23.2 21.4 11.5 6.1 20.9 5.4 42.5 -3.5 6.1 -2.5 14.1 -5.7 18 -7.2 3.8 -1.5 6.2 -2.8 5.3 -3 -2.7 -0.5 -17.4 2.5 -27.4 5.6 l-9.2 2.9 -1.6 -3.8 c-1 -2.1 -4.5 -6.3 -7.8 -9.4 -6 -5.3 -6.1 -5.5 -4.3 -7.4 0.9 -1.1 4.5 -2.9 7.9 -4 15.2 -5 29.1 -5.2 52.1 -0.6 7.1 1.4 14.6 2.5 16.5 2.5 2 0 10.2 -1.4 18.1 -3.1 28.6 -6.1 53.6 -4.8 77.4 4.2 10.9 4.1 14.3 10.8 9.5 18.6 -5.4 9 -31.6 22 -61.7 30.8 -0.6 0.2 -2.7 2.8 -4.6 5.7 -5.7 8.9 -20.1 21.7 -29.9 26.7 -8.9 4.5 -18.8 6.7 -18.8 4.1z m-91.8 -53.5 c-2.9 -2 -7.8 -6.1 -11 -9.3 -11.3 -11.1 -15.5 -17.7 -46.7 -73.2 -14.6 -25.9 -23 -40.2 -30.8 -52.3 -3.8 -5.9 -6.8 -10.9 -6.6 -11.1 0.2 -0.2 2.7 -1.6 5.4 -3.2 7.1 -4.1 17.5 -14.9 20.6 -21.4 7.8 -16.2 5.7 -35.9 -4.9 -46.8 -8.5 -8.7 -20.5 -13 -39.2 -13.9 -17.9 -0.9 -52.5 2.8 -69.3 7.4 -8.4 2.3 -9 3.5 -9.5 20.7 -0.4 12.9 -0.3 14.3 1.5 16.5 2 2.4 2.3 2.4 7.9 1.4 3.3 -0.6 6 -1 6 -0.9 0.1 0 -0.1 7.5 -0.5 16.6 -0.8 18.1 0.2 55.8 1.9 72.7 1.5 14.6 2.3 15.3 15.8 15.2 5.3 0 11.3 -0.5 13.2 -1.2 5.4 -1.9 6 -4.2 5 -19.2 -1.5 -21.3 -1.3 -32.2 0.6 -32.9 2.8 -1.1 10.1 -0.6 11.2 0.7 0.5 0.6 4.9 8 9.7 16.2 19.7 33.8 56.2 90.5 63.8 99.2 5.8 6.6 19.5 14.7 30.2 17.9 7.1 2 20.2 4.2 26.5 4.3 l4.5 0.1 -5.3 -3.5z m168.2 -19.1 c2.1 -2 2 -5.3 -0.1 -7.6 -3.3 -3.6 -9.3 -1.3 -9.3 3.7 0 3 2.5 5.5 5.5 5.5 1.3 0 3.1 -0.7 3.9 -1.6z"/>
  <path d="M211.6 333.8 c-0.3 -1.3 -0.6 -8.7 -0.6 -16.5 0 -13 0.2 -14.3 1.9 -15.3 3.9 -2 15.8 -4.2 23.6 -4.3 12.7 -0.1 18.5 4 18.5 12.9 0 10.1 -10.8 18.9 -28.8 23.4 -10.5 2.7 -13.8 2.6 -14.6 -0.2z m25.8 -14.6 c2.7 -1.5 5.1 -3.2 5.3 -3.9 0.9 -2.6 -11.6 -2.8 -18.4 -0.2 -1.9 0.7 -2.3 1.6 -2.3 5.3 l0 4.5 5.3 -1.5 c2.8 -0.9 7.4 -2.8 10.1 -4.2z"/>
  <path d="M351.6 429.9 c-20.3 -2.3 -37.2 -13.9 -46.5 -31.8 -5.8 -11.1 -8.1 -20.9 -8.1 -34 0 -40.2 25.6 -68.1 62.6 -68.1 24 0 44.7 11.9 53.9 31.1 1.9 4 3.6 8 3.7 8.9 0.1 0.8 0.4 -5 0.8 -13 0.8 -16.5 1.7 -19.4 7.7 -23.2 3.5 -2.1 4.8 -2.3 18.3 -2.3 13.5 0 14.8 0.2 18.7 2.4 3.1 1.8 4.6 2.1 5.5 1.4 3.3 -2.8 14 -5.3 22.1 -5.3 12.6 0 20.5 2.8 30.4 10.7 l4.2 3.4 6.1 -4.5 c8.4 -6.2 15.6 -8.7 26.5 -9.3 24.7 -1.4 44 12.3 50 35.7 1 3.6 1.9 7.2 2.2 8 0.2 0.8 1.7 -1.7 3.2 -5.6 3.5 -8.9 7.2 -14.3 15.3 -22 18.4 -17.7 49.1 -21.6 73.5 -9.3 11.5 5.8 22.9 18.2 27.4 29.8 l1.8 4.6 0.1 -8.5 c0.2 -18.8 2.4 -26.1 9.2 -29.6 3.5 -1.8 21.9 -3.1 29.1 -2 2.5 0.4 6.2 1.8 8.1 3.1 l3.6 2.4 5.3 -2.5 c6.7 -3 15.8 -4.8 20 -3.8 8 1.7 10.7 6.1 10.7 17 l0 7.7 2.8 -3.9 c13.4 -18.5 38.9 -26.2 59.5 -18 l6.5 2.7 3.8 -2.3 c3.6 -2.1 5.1 -2.3 18.4 -2.3 13 0 14.9 0.2 18.1 2.1 l3.6 2.2 0.6 -11.8 c0.8 -15.8 3.6 -22.3 11.2 -25.5 5.8 -2.5 20.1 -4.6 36.5 -5.4 16.5 -0.9 55.5 0.1 61.9 1.5 1.8 0.4 4.8 2.2 6.6 4 2.3 2.2 3.5 2.9 3.8 2 0.3 -0.7 2.2 -2.1 4.4 -3.1 3.1 -1.6 6.1 -1.9 16.8 -1.9 15.1 0.1 19.5 1.2 23 5.9 3.8 4.9 4.5 11.7 4.6 43.5 0 24.6 0.2 28 1.3 25 3.3 -8.9 7.3 -14.9 14.6 -22.1 12.4 -12.3 26.3 -17.9 44.6 -17.9 17 0 33.6 6.3 44.5 17 l5.7 5.6 0.4 -6.3 c0.3 -4.9 0.9 -6.8 2.8 -8.9 4.7 -4.9 7 -5.5 22.4 -5.5 21.9 -0.1 23.9 1.5 28.1 21.8 1.4 6.5 2.8 12.9 3.1 14.3 0.5 1.9 1.6 -1.3 4.4 -12.2 4.2 -16.1 5.5 -18.7 10.9 -22 3.3 -2.1 4.7 -2.3 18.6 -2.3 22.6 0 24.2 1.2 29.4 22.5 1.7 6.9 3.6 13.4 4.1 14.5 0.9 2 0.9 2 0.9 0 0.1 -1.1 1.5 -7.8 3.2 -14.9 2.7 -11 3.6 -13.4 6.6 -16.7 4.5 -5 10.9 -6.4 25.1 -5.6 11.2 0.6 14.9 2 18.6 7 2.8 3.8 2.7 12.3 -0.3 23.7 -7.1 27.3 -24.6 86.3 -26.9 91 -4.4 8.8 -6.3 9.5 -26.7 9.5 -16 0 -17.2 -0.1 -20.7 -2.3 -4.7 -2.9 -7.8 -9.5 -10.9 -22.9 -1.3 -5.7 -2.7 -10.3 -3 -10.3 -0.3 0 -1.3 3.5 -2.3 7.8 -6.1 26.2 -9.8 29 -36.2 27.9 -18.4 -0.7 -21.2 -3.1 -26.4 -21.2 -7.2 -25.5 -10.4 -36 -11 -36.8 -0.4 -0.4 -1 1.9 -1.3 5.1 -0.4 3.3 -1.7 8.9 -3 12.6 -6.6 18.1 -18.7 30.4 -37.9 38.5 -5.9 2.4 -7.3 2.6 -21.8 2.6 -14.3 0 -16 -0.3 -22.2 -2.6 -15.6 -6 -28 -16.6 -34.2 -29 -2 -3.9 -3.6 -7.8 -3.6 -8.5 0 -0.7 -0.3 -1.5 -0.7 -1.7 -0.5 -0.3 -0.8 5.9 -0.8 13.6 0 16.1 -1.3 20.3 -7.5 24.5 -3.1 2 -4.4 2.2 -18.5 2.2 -14.1 0 -15.4 -0.2 -18.5 -2.3 -1.9 -1.2 -4.3 -3.8 -5.4 -5.7 -2 -3.4 -2.1 -5.1 -2.4 -54.9 l-0.3 -51.3 -2 1.8 c-1.9 1.7 -4.5 1.9 -26.2 2.4 -21.2 0.4 -24.2 0.7 -24.5 2.1 -0.3 1.4 1.7 1.7 16.1 2.1 14.7 0.4 16.7 0.7 19.9 2.6 6.1 3.8 7.3 7.7 7.3 23.2 0 15.9 -1.2 19 -8.5 22.7 -4 2.1 -5.8 2.3 -19.6 2.3 l-15.2 0 -0.4 21.8 c-0.3 19.8 -0.5 22.1 -2.5 25.7 -3.7 7.1 -6.6 8 -23.8 8 -17.4 0 -20.1 -0.9 -23.7 -7.8 -1.9 -3.8 -2.2 -6.5 -3 -27.2 -0.5 -12.6 -0.6 -34 -0.3 -47.5 0.7 -26.2 0.8 -25.6 -4 -28.3 -0.7 -0.3 -1 15.7 -1 47.1 0 52.4 -0.3 55.1 -5.7 59.7 -4.4 3.7 -9.9 4.8 -23 4.3 -10.2 -0.4 -12.2 -0.7 -14.7 -2.6 -1.7 -1.2 -3.3 -2.2 -3.7 -2.2 -0.4 0 -3.2 1.2 -6.2 2.7 -4.6 2.2 -7.3 2.8 -15 3.1 -11.7 0.5 -18.5 -0.9 -27.7 -5.7 -10.6 -5.5 -19.1 -14.4 -24.8 -26.1 -6.2 -12.5 -8 -20 -8.1 -33.2 l-0.1 -10.8 -5.8 0 c-7 0 -11.9 2.1 -13.8 5.8 -1 2 -1.5 9.9 -1.9 29.2 -0.4 17.5 -1.1 27.5 -1.9 29.5 -3.5 8.5 -10.5 11 -28.2 10.3 -12.9 -0.5 -16.3 -2.1 -19.8 -9.1 -2.1 -4.3 -2.4 -6.2 -2.5 -18.2 -0.1 -7.4 -0.4 -13.1 -0.7 -12.7 -0.3 0.4 -1.3 2.6 -2.2 5 -5.5 14.1 -18.6 26.3 -35.6 33 -6.1 2.4 -7.8 2.6 -21.6 2.7 -13.3 0 -15.7 -0.3 -21.3 -2.3 -15.7 -5.8 -27.9 -16.2 -34.8 -29.8 l-4.2 -8.1 -0.4 13.6 c-0.5 15.7 -1.8 19.7 -7.7 23.3 -3.3 2.1 -4.8 2.3 -17.6 2.3 -15.8 0 -19.6 -1.1 -23 -6.8 -1.8 -2.9 -2.1 -5.8 -2.6 -33.7 -0.6 -30.4 -1 -34 -4.4 -37.3 -2.5 -2.5 -7.7 -2.1 -10.4 0.7 -3.5 3.7 -4.1 8.3 -4.1 33.7 0 31.9 -1.1 36.7 -9.1 41.4 -2.5 1.5 -5.7 2 -13.1 2.3 -13.6 0.6 -20.1 -0.4 -23.8 -3.5 -6.3 -5.3 -6.4 -5.8 -7 -39.3 -0.4 -27 -0.7 -30.9 -2.3 -33.3 -3.4 -5.3 -10.1 -4.5 -13.4 1.5 -1.5 2.9 -1.8 7.2 -2.4 32.3 -0.6 31.8 -1 33.9 -6.7 38.7 -2.6 2.2 -4.5 2.7 -11.9 3.3 -12.1 1.1 -23.6 -0.5 -27 -3.6 -4.8 -4.6 -5.7 -7.5 -6.1 -21.8 l-0.4 -13.5 -2.4 5.8 c-9.5 23.4 -36 37.8 -63.8 34.5z m21.9 -16.4 c8.5 -2.3 15.2 -6.2 22.1 -13 6.1 -6.1 13.3 -18.3 11.9 -20.4 -0.4 -0.7 -5.8 -1.1 -14.7 -1.1 l-14.1 0 -4.2 3.9 c-12.5 11.5 -32.8 4.9 -35.8 -11.6 l-0.6 -3.3 32.7 -0.1 c18 -0.1 34.1 -0.4 35.7 -0.8 3 -0.6 3 -0.7 3.3 -7.7 0.8 -20.6 -8.9 -39.4 -24.5 -47.2 -6.4 -3.3 -18.6 -6.2 -25.5 -6.2 -6.8 0 -17.8 2.7 -24.4 6 -25.2 12.4 -34.9 47.8 -20.8 76 6.7 13.3 17.6 22 31.9 25.6 7 1.7 20 1.7 27 -0.1z m311 0 c17.1 -4.5 30.2 -16.7 36.3 -33.9 3.5 -9.8 3.7 -26.7 0.5 -37.1 -5.1 -16.2 -16.6 -28.1 -32.5 -33.6 -9 -3.1 -24.5 -3.2 -34.3 -0.2 -22.1 6.9 -35.5 26.4 -35.5 51.8 0 22.9 10.1 39.8 29.7 49.9 8.9 4.5 24.9 5.9 35.8 3.1z m192.5 -1.7 c3 -1.4 7.8 -4.6 10.7 -7.2 l5.1 -4.7 0.7 5.5 c0.4 3.1 1.3 6 2 6.6 0.8 0.7 6.1 1 14.1 0.8 l12.9 -0.3 0.7 -4 c0.9 -5 0.8 -92.9 -0.1 -97 l-0.6 -3 -14.3 -0.3 -14.2 -0.3 0 5.4 c0 3 -0.3 5.6 -0.6 5.9 -0.3 0.4 -3.4 -1.5 -6.9 -4.2 -10.3 -7.8 -21.2 -10.3 -32.9 -7.6 -17.8 4.2 -30.5 17.4 -35.1 36.7 -1.9 8.2 -1.9 23.6 0 31.8 4.2 17.7 17.1 32.5 33 37.8 6.4 2.1 18.9 1.2 25.5 -1.9z m297.1 1.6 c20.7 -6.1 34.4 -22.5 37.8 -45.4 2.6 -17.2 -4.2 -37.7 -16.4 -48.9 -16.2 -14.9 -45.5 -17.3 -64.4 -5.1 -15.1 9.6 -24.2 26.8 -24.3 45.5 -0.2 25.7 14.8 47.1 37.5 53.6 8 2.3 22.5 2.4 29.8 0.3z m-645.9 -1.2 c1 -1 1.4 -8.6 1.8 -31.5 l0.5 -30.2 2.7 -5.5 c3.1 -6.3 6.6 -9.3 12.8 -11 6.6 -1.8 12.4 -0.5 17.1 3.7 6.3 5.7 6.9 9.2 7.5 43.8 0.3 17.6 0.9 30.4 1.5 31 0.5 0.5 6.1 1.2 12.3 1.3 10.7 0.4 11.5 0.3 13.6 -1.8 l2.2 -2.2 -0.5 -34.2 c-0.5 -37.1 -1.1 -42.1 -6.4 -51.9 -5.4 -9.8 -15.9 -16.2 -28.8 -17.4 -12.1 -1.1 -23.7 3.3 -33.6 12.8 l-6.2 5.9 -5.4 -5.9 c-3.7 -4.2 -7.5 -7 -12.1 -9.3 -6.1 -3 -7.4 -3.3 -16.2 -3.3 -8.6 0 -10.1 0.3 -16.1 3.1 -3.7 1.8 -8.4 4.8 -10.6 6.8 -2.2 2 -4.3 3.6 -4.6 3.6 -0.3 0 -0.7 -2.6 -0.9 -5.7 l-0.3 -5.8 -13.5 -0.3 c-11.8 -0.2 -13.6 0 -14.7 1.5 -1.7 2.2 -1.9 98.3 -0.3 101.4 1 1.7 2.2 1.9 14 1.9 9.2 0 13.1 -0.4 13.7 -1.2 0.4 -0.7 1 -14.6 1.3 -30.8 0.5 -28.1 0.6 -29.7 2.8 -34.5 4.4 -9.4 8.9 -12.5 18.5 -12.5 7.8 0 12 2.4 15.7 9 2.5 4.5 2.5 4.7 3 36.3 0.5 30.4 0.6 31.9 2.5 33.3 2.6 2 24.7 1.6 26.7 -0.4z m242.4 0.4 c1.8 -1.3 1.9 -3.2 2.4 -29.3 0.5 -26.2 0.6 -28 2.7 -31.9 2.7 -5 8 -9.8 12.5 -11.3 1.8 -0.6 6.5 -1.4 10.3 -1.8 l7 -0.8 0.3 -15.3 c0.3 -17.7 0.5 -17.4 -9.1 -14.8 -7.3 2 -15.4 7.1 -19.4 12.1 -1.5 1.9 -3.1 3.5 -3.5 3.5 -0.4 0 -0.8 -3.3 -1 -7.2 l-0.3 -7.3 -14.5 0 -14.5 0 -0.8 11.5 c-0.8 11.6 0 89.2 1 91.6 0.6 1.6 3.5 2.1 15.4 2.3 6.8 0.1 10.1 -0.3 11.5 -1.3z m209.2 -0.2 c2.2 -1.5 2.2 -1.8 2.2 -28 l0 -26.4 20.2 0 c24.9 0 23.8 0.6 23.8 -12.5 0 -5.7 -0.5 -9.7 -1.2 -10.8 -1.1 -1.5 -4 -1.7 -21.8 -1.9 l-20.5 -0.3 0 -14.5 0 -14.5 27 -0.2 c33.2 -0.4 30.5 1.2 30.5 -17.8 0 -11.1 -0.3 -13.5 -1.7 -14.6 -1.3 -1.1 -8.7 -1.4 -38.2 -1.4 -31.5 0 -37.8 0.3 -44.9 1.8 -8.8 1.9 -11.8 3.2 -12.7 5.6 -0.3 0.8 -0.8 6.5 -1.1 12.6 -0.7 14 0.1 15.9 7 16.3 4.7 0.3 4.8 0.4 4.1 3 -1.2 4.9 -1.8 99.7 -0.6 102 1.4 2.6 3.1 2.9 15.6 3.1 7.7 0.1 10.6 -0.3 12.3 -1.5z m301.2 0 c1.2 -1.2 6 -17.9 14.1 -48.4 5.2 -19.9 4.9 -19 6 -16 0.6 1.3 4.4 15.9 8.5 32.5 5.9 23.8 7.9 30.4 9.6 31.8 1.9 1.6 3.8 1.8 16.1 1.5 16.3 -0.4 15.2 0.4 19.6 -13.7 7.2 -23.3 25.2 -88.3 24.9 -89.9 -0.3 -1.5 -1.9 -1.7 -13.4 -2 -9.7 -0.2 -13.4 0.1 -14.2 1 -0.5 0.7 -3.3 11.7 -6.2 24.3 -8.4 37.7 -10.2 45 -11 45.9 -0.5 0.5 -1.3 -0.9 -1.9 -3 -0.5 -2.2 -4.4 -17.6 -8.7 -34.4 -4.2 -16.8 -8.1 -31.3 -8.6 -32.2 -0.8 -1.6 -2.6 -1.8 -15.2 -1.8 -12.8 0 -14.5 0.2 -15.1 1.8 -0.4 0.9 -4.6 17 -9.4 35.7 -4.7 18.7 -9 33.9 -9.6 33.8 -0.9 -0.2 -6.5 -23.3 -12.6 -52.8 -1.7 -8.2 -3.6 -15.8 -4.1 -16.7 -0.8 -1.6 -2.5 -1.8 -14.2 -1.8 -9.9 0 -13.6 0.3 -14.5 1.3 -0.8 1.1 1.7 11.2 10.4 41.8 12.3 43.1 17 58.7 18.2 60.5 1.3 1.9 4.2 2.3 17.5 2.1 8 -0.1 13.1 -0.6 13.8 -1.3z m-194.2 -0.6 c1.6 -1.6 1.7 -134.9 0.2 -137.9 -1 -1.7 -2.2 -1.9 -14.3 -1.9 -9 0 -13.7 0.4 -14.5 1.2 -1.6 1.6 -1.7 134.9 -0.2 137.9 1 1.7 2.2 1.9 14.3 1.9 9 0 13.7 -0.4 14.5 -1.2z"/>
  <path d="M342.8 349.3 c-4.5 -0.5 -4.9 -2.3 -1.9 -8.1 5.6 -10.8 17.8 -15.2 28.1 -9.9 5.1 2.5 9.6 8.5 10.6 14 l0.6 3.7 -10.3 0 c-5.7 0 -13.3 0.2 -16.9 0.4 -3.6 0.2 -8.2 0.2 -10.2 -0.1z"/>
  <path d="M663.9 386.7 c-7.4 -2.8 -12 -7.9 -14.4 -16.1 -5.6 -18.7 5.2 -37.6 21.5 -37.6 13.9 0 23 10.6 23 26.9 0 12.4 -4.2 21.1 -12.2 25.2 -5.1 2.6 -13.2 3.3 -17.9 1.6z m14.8 -11.8 c6.9 -5.8 4.9 -22.1 -3.1 -25.4 -4.7 -2 -9 -0.9 -12.5 3.1 -7.3 8.3 -3.7 23.1 6 24.6 2.9 0.5 7.6 -0.7 9.6 -2.3z"/>
  <path d="M863.8 386.9 c-4.6 -1.3 -11.1 -6.8 -13.2 -11.3 -4.6 -9.8 -4 -24.4 1.4 -32.9 7.2 -11.3 25.3 -12.9 34.6 -3 8.3 8.8 9.3 27.4 2.1 38 -5.2 7.7 -16 11.7 -24.9 9.2z m14.5 -12.8 c5.2 -5.2 5.2 -16.8 0.1 -22.3 -9.1 -9.4 -23 1.8 -19.3 15.6 2.7 10.2 12.4 13.6 19.2 6.7z"/>
  <path d="M1152.6 386.5 c-11.5 -4.1 -16.2 -12.8 -15.4 -28.5 0.5 -9.1 2 -13.3 6.7 -18.3 4.7 -5.1 9.6 -7 17.2 -6.5 9.1 0.5 14.2 3.9 18.4 12.3 2.7 5.4 3 6.9 2.9 15 -0.1 10.3 -1.5 14.4 -7 20.5 -2.5 2.8 -5.2 4.4 -8.7 5.5 -6.2 1.8 -9 1.8 -14.1 0z m11 -9.5 c0.6 0 2.3 -1.2 3.8 -2.6 7.7 -7.7 3.9 -24.1 -5.9 -25.9 -4.1 -0.8 -9.4 2.2 -11.7 6.5 -2.3 4.4 -2.3 11.5 0 16 1.9 3.9 7.6 7.3 10.7 6.5 1.1 -0.2 2.5 -0.5 3.1 -0.5z"/>
 </g>
</svg>
